<?xml version="1.0" encoding="UTF-8" standalone="no"?>
<svg
   xmlns:dc="http://purl.org/dc/elements/1.1/"
   xmlns:cc="http://creativecommons.org/ns#"
   xmlns:rdf="http://www.w3.org/1999/02/22-rdf-syntax-ns#"
   xmlns:svg="http://www.w3.org/2000/svg"
   xmlns="http://www.w3.org/2000/svg"
   xmlns:sodipodi="http://sodipodi.sourceforge.net/DTD/sodipodi-0.dtd"
   xmlns:inkscape="http://www.inkscape.org/namespaces/inkscape"
   id="svg8"
   width="879.2"
   height="440.5"
   shape-rendering="crispEdges"
   version="1.1"
   viewBox="0 0 232.63031 116.55202"
   sodipodi:docname="packMontanhas.svg"
   inkscape:version="0.92.1 r15371">
  <metadata
     id="metadata4592">
    <rdf:RDF>
      <cc:Work
         rdf:about="">
        <dc:format>image/svg+xml</dc:format>
        <dc:type
           rdf:resource="http://purl.org/dc/dcmitype/StillImage" />
        <dc:title />
      </cc:Work>
    </rdf:RDF>
  </metadata>
  <defs
     id="defs4590" />
  <sodipodi:namedview
     pagecolor="#ffffff"
     bordercolor="#666666"
     borderopacity="1"
     objecttolerance="10"
     gridtolerance="10"
     guidetolerance="10"
     inkscape:pageopacity="0"
     inkscape:pageshadow="2"
     inkscape:window-width="1920"
     inkscape:window-height="1017"
     id="namedview4588"
     showgrid="false"
     inkscape:zoom="0.57263424"
     inkscape:cx="194.75891"
     inkscape:cy="288.84889"
     inkscape:window-x="-8"
     inkscape:window-y="-8"
     inkscape:window-maximized="1"
     inkscape:current-layer="layer1" />
  <g
     id="layer1"
     transform="translate(0 .0001352)">
    <g
       id="montanha3">
      <path
         id="path5160"
         d="m107.7 116.5h40.08l-40.08-46.28z"
         fill="#faf9f9" />
      <path
         id="path4539"
         d="m107.7 116.5h40.08l-40.08-46.28z"
         fill="#fff" />
      <path
         id="path5722"
         d="m107.7 116.5h40.08l-40.08-46.28z"
         fill="#fff" />
      <path
         id="path5162"
         d="m107.7 116.5h-40.08l40.08-46.28z"
         fill="#eeeaed" />
      <path
         id="path5724"
         d="m107.7 116.5h-40.08l40.08-46.28z"
         fill="#eeeaed" />
      <path
         id="path4541"
         d="m107.7 116.5h-40.08l40.08-46.28z"
         fill="#eeeaed"
         style="fill:#dcd8da;fill-opacity:1" />
    </g>
    <g
       id="montanha4">
      <path
         id="path4543"
         d="m144.6 116.6h28.3l-28.3-32.68z"
         fill="#fff" />
      <path
         id="path5726"
         d="m144.6 116.6h28.3l-28.3-32.68z"
         fill="#fff" />
      <path
         id="path5184"
         d="m144.6 116.6h-28.3l28.3-32.68z"
         fill="#eeeaed" />
      <path
         id="path5728"
         d="m144.6 116.6h-28.3l28.3-32.68z"
         fill="#eeeaed" />
      <path
         id="path5182"
         d="m144.6 116.6h28.3l-28.3-32.68z"
         fill="#faf9f9" />
      <path
         id="path4545"
         d="m144.6 116.6h-28.3l28.3-32.68z"
         fill="#eeeaed"
         style="fill:#dcd8da;fill-opacity:1" />
    </g>
    <g
       id="montanha5">
      <path
         id="path5204"
         d="m167.6 116.6h47.21l-47.21-54.51z"
         fill="#faf9f9" />
      <path
         id="path4547"
         d="m167.6 116.6h47.21l-47.21-54.51z"
         fill="#fff" />
      <path
         id="path5730"
         d="m167.6 116.6h47.21l-47.21-54.51z"
         fill="#fff" />
      <path
         id="path5206"
         d="m167.6 116.6h-47.21l47.21-54.51z"
         fill="#eeeaed" />
      <path
         id="path5732"
         d="m167.6 116.6h-47.21l47.21-54.51z"
         fill="#eeeaed" />
      <path
         id="path4549"
         d="m167.6 116.6h-47.21l47.21-54.51z"
         fill="#eeeaed"
         style="fill:#dcd8da;fill-opacity:1" />
    </g>
    <g
       id="montanha0">
      <path
         id="path5226"
         d="m40.56 116.6h40.56l-40.56-46.83z"
         fill="#faf9f9" />
      <path
         id="path4551"
         d="m40.56 116.6h40.56l-40.56-46.83z"
         fill="#fff" />
      <path
         id="path5734"
         d="m40.56 116.6h40.56l-40.56-46.83z"
         fill="#fff" />
      <path
         id="path5228"
         d="m40.56 116.6h-40.56l40.56-46.83z"
         fill="#eeeaed" />
      <path
         id="path5736"
         d="m40.56 116.6h-40.56l40.56-46.83z"
         fill="#eeeaed" />
      <path
         id="path4553"
         d="m40.56 116.6h-40.56l40.56-46.83z"
         fill="#eeeaed"
         style="fill:#dcdcdc;fill-opacity:1" />
    </g>
    <g
       id="montanha2">
      <path
         id="path5248"
         d="m92.11 116.6h33.44l-33.44-38.61z"
         fill="#faf9f9" />
      <path
         id="path4555"
         d="m92.11 116.6h33.44l-33.44-38.61z"
         fill="#fff" />
      <path
         id="path5738"
         d="m92.11 116.6h33.44l-33.44-38.61z"
         fill="#fff" />
      <path
         id="path5250"
         d="m92.11 116.6h-33.44l33.44-38.61z"
         fill="#eeeaed" />
      <path
         id="path5740"
         d="m92.11 116.6h-33.44l33.44-38.61z"
         fill="#eeeaed" />
      <path
         id="path4557"
         d="m92.11 116.6h-33.44l33.44-38.61z"
         fill="#eeeaed"
         style="fill:#dcd8da;fill-opacity:1" />
    </g>
    <g
       id="montanha1">
      <path
         id="path5270"
         d="m74.37 116.6h28.84l-28.84-33.31z"
         fill="#faf9f9" />
      <path
         id="path4559"
         d="m74.37 116.6h28.84l-28.84-33.31z"
         fill="#fff" />
      <path
         id="path5742"
         d="m74.37 116.6h28.84l-28.84-33.31z"
         fill="#fff" />
      <path
         id="path5272"
         d="m74.37 116.6h-28.84l28.84-33.31z"
         fill="#eeeaed" />
      <path
         id="path5744"
         d="m74.37 116.6h-28.84l28.84-33.31z"
         fill="#eeeaed" />
      <path
         id="path4561"
         d="m74.37 116.6h-28.84l28.84-33.31z"
         fill="#eeeaed"
         style="fill:#dcdcdc;fill-opacity:1" />
    </g>
    <g
       id="g5025">
      <path
         id="path5292"
         d="m116.3 116.6h34.39l-34.39-39.71z"
         fill="#faf9f9" />
      <path
         id="path4563"
         d="m116.3 116.6h34.39l-34.39-39.71z"
         fill="#fff" />
      <path
         id="path5746"
         d="m116.3 116.6h34.39l-34.39-39.71z"
         fill="#fff" />
      <path
         id="path5294"
         d="m116.3 116.6h-34.39l34.39-39.71z"
         fill="#eeeaed" />
      <path
         id="path5748"
         d="m116.3 116.6h-34.39l34.39-39.71z"
         fill="#eeeaed" />
      <path
         id="path4565"
         d="m116.3 116.6h-34.39l34.39-39.71z"
         fill="#eeeaed"
         style="fill:#dcd8da;fill-opacity:1" />
    </g>
    <g
       id="montanha6">
      <path
         id="path5314"
         d="m204.3 116.6h28.3l-28.3-32.68z"
         fill="#faf9f9" />
      <path
         id="path4567"
         d="m204.3 116.6h28.3l-28.3-32.68z"
         fill="#fff" />
      <path
         id="path5750"
         d="m204.3 116.6h28.3l-28.3-32.68z"
         fill="#fff" />
      <path
         id="path5316"
         d="m204.3 116.6h-28.3l28.3-32.68z"
         fill="#eeeaed" />
      <path
         id="path5752"
         d="m204.3 116.6h-28.3l28.3-32.68z"
         fill="#eeeaed" />
      <path
         id="path4569"
         d="m204.3 116.6h-28.3l28.3-32.68z"
         fill="#eeeaed"
         style="fill:#dcd8da;fill-opacity:1" />
    </g>
    <g
       id="lua">
      <path
         id="path5066"
         d="m134.5 18.22-6.506 11.39-11.71 6.832-13.66-5.53-4.554-12.69 5.856-12.36 12.36-5.856 12.04 5.53z"
         fill="#fff"
         stroke-width=".1139" />
      <path
         id="path5068"
         d="m100.7 19.61-5e-3 -6.962 2.928 13.42z"
         fill="#e2cebe"
         fill-rule="evenodd" />
      <path
         id="path5070"
         d="m98.1 18.26 2.623-2.155 0.3253 4.067z"
         fill="#d5b5a0"
         fill-rule="evenodd" />
      <path
         id="path5072"
         d="m98.07 18.22 1.868 5.227 1.103-3.275z"
         fill="#d5b5a0"
         fill-rule="evenodd" />
      <path
         id="path5074"
         d="m101.6 28.18-1.708-4.758 1.139-3.253z"
         fill="#d5b5a0"
         fill-rule="evenodd" />
      <path
         id="path5076"
         d="m101.6 28.18 2.074-2.074-2.686-5.944z"
         fill="#d5b5a0"
         fill-rule="evenodd" />
      <path
         id="path5078"
         d="m101.6 28.18 2.074-2.074-1.057 4.88z"
         fill="#caaa94"
         fill-rule="evenodd" />
      <path
         id="path5080"
         d="m116.6 36.56-12.89-10.45-1.057 4.88z"
         fill="#d4baa7"
         fill-rule="evenodd" />
      <path
         id="path5082"
         d="m116.6 36.56-12.89-10.45 24.28 3.619z"
         fill="#e6cdba"
         fill-rule="evenodd" />
      <path
         id="path5084"
         d="m120.3 28.71 14.15-10.53-6.506 11.55z"
         fill="#f6e0d0"
         fill-rule="evenodd" />
      <path
         id="path5086"
         d="m120.3 28.71-19.6-16.06 2.928 13.42z"
         fill="#f6e0d0"
         fill-rule="evenodd" />
      <path
         id="path5088"
         d="m120.3 28.71 14.15-10.53-8.133-4.758z"
         fill="#f8deca"
         fill-rule="evenodd" />
      <path
         id="path5090"
         d="m120.3 28.71-19.6-16.06 25.64 0.8322z"
         fill="#f7e5d7"
         fill-rule="evenodd" />
      <path
         id="path5092"
         d="m103.9 5.896-3.213 6.75 25.78 0.8322z"
         fill="#f2efec"
         fill-rule="evenodd" />
      <path
         id="path5094"
         d="m128.4 5.693 6.059 12.48-8.133-4.758z"
         fill="#f6ece5"
         fill-rule="evenodd" />
      <path
         id="path5096"
         d="m128.4 5.693-24.47 0.2135 22.4 7.513z"
         fill="#f6ece5"
         fill-rule="evenodd" />
      <path
         id="path5098"
         d="m122.1 6.1-18.2-0.1932 12.34-5.866z"
         fill="#fff1e7"
         fill-rule="evenodd" />
      <path
         id="path5100"
         d="m122.1 6.1 6.317-0.428-12.17-5.631z"
         fill="#ffeee2"
         fill-rule="evenodd" />
      <path
         id="path5102"
         d="m98.01 18.35 2.704-2.247-0.01-3.443z"
         fill="#d5b5a0"
         fill-rule="evenodd" />
      <path
         id="path5104"
         d="m98.1 18.26 2.623-2.155 0.3253 4.067z"
         fill="#d5b5a0"
         fill-rule="evenodd" />
      <path
         id="path5106"
         d="m98.07 18.22 1.868 5.227 1.103-3.275z"
         fill="#d5b5a0"
         fill-rule="evenodd" />
      <path
         id="path5108"
         d="m101.6 28.18-1.708-4.758 1.139-3.253z"
         fill="#d5b5a0"
         fill-rule="evenodd" />
      <path
         id="path5110"
         d="m101.6 28.18 2.074-2.074-2.686-5.944z"
         fill="#d5b5a0"
         fill-rule="evenodd" />
      <path
         id="path5112"
         d="m101.6 28.18 2.074-2.074-1.057 4.88z"
         fill="#caaa94"
         fill-rule="evenodd" />
      <path
         id="path5114"
         d="m116.6 36.56-12.89-10.45-1.057 4.88z"
         fill="#d4baa7"
         fill-rule="evenodd" />
      <path
         id="path5116"
         d="m116.6 36.56-12.89-10.45 24.28 3.619z"
         fill="#e6cdba"
         fill-rule="evenodd" />
      <path
         id="path5118"
         d="m120.3 28.71-19.6-16.06 2.928 13.42z"
         fill="#f6e0d0"
         fill-rule="evenodd" />
      <path
         id="path5120"
         d="m120.3 28.71-19.6-16.06 25.64 0.8322z"
         fill="#f7e5d7"
         fill-rule="evenodd" />
      <path
         id="path5122"
         d="m98.01 18.35 2.704-2.247-0.01-3.443z"
         fill="#d5b5a0"
         fill-rule="evenodd" />
      <path
         id="path5124"
         d="m98.1 18.26 2.623-2.155 0.3253 4.067z"
         fill="#d5b5a0"
         fill-rule="evenodd" />
      <path
         id="path5126"
         d="m98.07 18.22 1.868 5.227 1.103-3.275z"
         fill="#d5b5a0"
         fill-rule="evenodd" />
      <path
         id="path5128"
         d="m101.6 28.18-1.708-4.758 1.139-3.253z"
         fill="#d5b5a0"
         fill-rule="evenodd" />
      <path
         id="path5130"
         d="m101.6 28.18 2.074-2.074-2.686-5.944z"
         fill="#d5b5a0"
         fill-rule="evenodd" />
      <path
         id="path5132"
         d="m101.6 28.18 2.074-2.074-1.057 4.88z"
         fill="#caaa94"
         fill-rule="evenodd" />
      <path
         id="path5134"
         d="m116.6 36.56-12.89-10.45-1.057 4.88z"
         fill="#d4baa7"
         fill-rule="evenodd" />
      <path
         id="path5136"
         d="m116.6 36.56-12.89-10.45 24.28 3.619z"
         fill="#e6cdba"
         fill-rule="evenodd" />
      <path
         id="path5138"
         d="m120.3 28.71-19.6-16.06 2.928 13.42z"
         fill="#f6e0d0"
         fill-rule="evenodd" />
      <path
         id="path5140"
         d="m120.3 28.71-19.6-16.06 25.64 0.8322z"
         fill="#f7e5d7"
         fill-rule="evenodd" />
      <path
         id="path5142"
         d="m98.01 18.35 2.704-2.247-0.01-3.443z"
         fill="#d5b5a0"
         fill-rule="evenodd" />
    </g>
  </g>
  <rect
     id="estrela0"
     class=""
     x="90.910004"
     y="10.4"
     width="1.323"
     height="1.323"
     style="fill:#ffffff;paint-order:markers stroke fill" />
  <rect
     id="estrela1"
     class=""
     x="110.6"
     y="42.630001"
     width="1.323"
     height="1.323"
     style="fill:#ffffff;paint-order:markers stroke fill" />
  <rect
     id="estrela2"
     class=""
     x="94.050003"
     y="30.33"
     width="1.323"
     height="1.323"
     style="fill:#ffffff;paint-order:markers stroke fill" />
  <rect
     id="estrela3"
     class=""
     x="136.2"
     y="6.2470002"
     width="1.323"
     height="1.323"
     style="fill:#ffffff;paint-order:markers stroke fill" />
  <rect
     id="estrela4"
     class=""
     x="137.8"
     y="28.860001"
     width="1.323"
     height="1.323"
     style="fill:#ffffff;paint-order:markers stroke fill" />
  <rect
     style="fill:#ffffff;paint-order:markers stroke fill"
     height="1.323"
     width="1.323"
     y="50.097446"
     x="-2.6975579"
     class="estrelinhaOut"
     id="rect4596" />
  <rect
     id="rect4598"
     class="estrelinhaOut"
     x="224.17543"
     y="15.904776"
     width="1.323"
     height="1.323"
     style="fill:#ffffff;paint-order:markers stroke fill" />
  <rect
     style="fill:#ffffff;paint-order:markers stroke fill"
     height="1.323"
     width="1.323"
     y="73.082169"
     x="197.05701"
     class="estrelinhaOut"
     id="rect4600" />
  <rect
     id="rect4602"
     class="estrelinhaOut"
     x="41.207767"
     y="11.003856"
     width="1.323"
     height="1.323"
     style="fill:#ffffff;paint-order:markers stroke fill" />
  <rect
     style="fill:#ffffff;paint-order:markers stroke fill"
     height="1.323"
     width="1.323"
     y="22.929426"
     x="-65.468918"
     class="estrelinhaOut"
     id="rect4604" />
  <rect
     id="rect4606"
     class="estrelinhaOut"
     x="269.10052"
     y="57.562592"
     width="1.323"
     height="1.323"
     style="fill:#ffffff;paint-order:markers stroke fill" />
</svg>
