<svg id="svg8" width="43.305mm" height="68.761mm" version="1.1" viewBox="0 0 43.304844 68.760949" xmlns="http://www.w3.org/2000/svg" xmlns:xlink="http://www.w3.org/1999/xlink">
 <defs id="defs2">
  <linearGradient id="linearGradient4346">
   <stop id="stop4342" style="stop-color:#f60" offset="0"/>
   <stop id="stop4344" style="stop-color:#fc0" offset="1"/>
  </linearGradient>
  <linearGradient id="linearGradient4364" x1="-20.173" x2="-25.895" y1="169.96" y2="144.41" gradientTransform="matrix(.82505 0 0 .82505 44.067 -95.789)" gradientUnits="userSpaceOnUse" xlink:href="#linearGradient4346"/>
  <linearGradient id="linearGradient4372" x1="-80.803" x2="-201.73" y1="750.58" y2="646.98" gradientTransform="matrix(.21829 0 0 .21829 44.067 -95.789)" gradientUnits="userSpaceOnUse" xlink:href="#linearGradient4346"/>
  <linearGradient id="linearGradient4380" x1="-78.602" x2="-79.246" y1="751.93" y2="644.08" gradientTransform="matrix(.21829 0 0 .21829 44.067 -95.789)" gradientUnits="userSpaceOnUse" xlink:href="#linearGradient4386"/>
  <linearGradient id="linearGradient4386">
   <stop id="stop4382" style="stop-color:#fff" offset="0"/>
   <stop id="stop4384" style="stop-color:#fc0" offset="1"/>
  </linearGradient>
  <linearGradient id="linearGradient4348" x1="-11.066" x2="-18.342" y1="151.13" y2="116.33" gradientTransform="matrix(.82505 0 0 .82505 44.067 -95.789)" gradientUnits="userSpaceOnUse" xlink:href="#linearGradient4346"/>
  <linearGradient id="linearGradient4394" x1="-20.173" x2="-36.323" y1="169.96" y2="136.83" gradientTransform="matrix(.82505 0 0 .82505 44.067 -95.789)" gradientUnits="userSpaceOnUse" xlink:href="#linearGradient4386"/>
 </defs>
 <path id="path4306" d="m14.11 17.105a22.703 22.703 0 0 1 -0.0068 0.0025 22.703 22.703 0 0 1 0.46046 0.168 22.703 22.703 0 0 1 2.0435 0.987 22.703 22.703 0 0 1 1.9348 1.1861 22.703 22.703 0 0 1 1.8065 1.3733 22.703 22.703 0 0 1 1.6602 1.5468 22.703 22.703 0 0 1 1.4978 1.705 22.703 22.703 0 0 1 1.32 1.8457 22.703 22.703 0 0 1 1.1294 1.9685 22.703 22.703 0 0 1 0.9269 2.0712 22.703 22.703 0 0 1 0.71542 2.1535 22.703 22.703 0 0 1 0.49713 2.2145 22.703 22.703 0 0 1 0.27329 2.2529 22.703 22.703 0 0 1 0.05714 1.6056 22.703 22.703 0 0 1 -0.11341 2.2665 22.703 22.703 0 0 1 -0.33938 2.2439 22.703 22.703 0 0 1 -0.43659 1.7093 36.868 36.868 0 0 0 1.78 -2.342 36.868 36.868 0 0 0 1.9263 -3.1418 36.868 36.868 0 0 0 1.6031 -3.3183 36.868 36.868 0 0 0 1.2637 -3.462 36.868 36.868 0 0 0 0.82713 -3.239 22.703 22.703 0 0 0 -0.79942 -1.3933 22.703 22.703 0 0 0 -1.32 -1.8461 22.703 22.703 0 0 0 -1.4978 -1.7046 22.703 22.703 0 0 0 -1.6602 -1.5468 22.703 22.703 0 0 0 -1.8069 -1.3737 22.703 22.703 0 0 0 -1.9344 -1.1861 22.703 22.703 0 0 0 -2.0435 -0.98699 22.703 22.703 0 0 0 -2.1318 -0.77811 22.703 22.703 0 0 0 -2.1987 -0.56152 22.703 22.703 0 0 0 -2.2439 -0.33894 22.703 22.703 0 0 0 -2.2665 -0.1134 22.703 22.703 0 0 0 -0.92348 0.03242z" style="fill:url(#linearGradient4394)"/>
 <path id="path4302" d="m28.963 2e-5a22.703 22.703 0 0 1 -0.02856 0.19058 22.703 22.703 0 0 1 -0.56151 2.1987 22.703 22.703 0 0 1 -0.7781 2.1318 22.703 22.703 0 0 1 -0.98701 2.0431 22.703 22.703 0 0 1 -1.1861 1.9348 22.703 22.703 0 0 1 -1.3733 1.8065 22.703 22.703 0 0 1 -1.5468 1.6606 22.703 22.703 0 0 1 -1.705 1.4974 22.703 22.703 0 0 1 -1.8461 1.3204 22.703 22.703 0 0 1 -1.9685 1.129 22.703 22.703 0 0 1 -2.0712 0.9269 22.703 22.703 0 0 1 -0.80027 0.26562 22.703 22.703 0 0 1 0.92348 -0.03242 22.703 22.703 0 0 1 2.2665 0.1134 22.703 22.703 0 0 1 2.2439 0.33895 22.703 22.703 0 0 1 2.1987 0.56152 22.703 22.703 0 0 1 2.1318 0.77811 22.703 22.703 0 0 1 2.0435 0.98699 22.703 22.703 0 0 1 1.9344 1.1861 22.703 22.703 0 0 1 1.8069 1.3737 22.703 22.703 0 0 1 1.6602 1.5468 22.703 22.703 0 0 1 1.4978 1.7046 22.703 22.703 0 0 1 1.32 1.8461 22.703 22.703 0 0 1 0.79941 1.3933 36.868 36.868 0 0 0 0.08442 -0.33128 36.868 36.868 0 0 0 0.55085 -3.6441 36.868 36.868 0 0 0 0.18418 -3.6807 36.868 36.868 0 0 0 -0.09252 -2.6076 36.868 36.868 0 0 0 -0.44383 -3.6586 36.868 36.868 0 0 0 -0.80709 -3.5959 36.868 36.868 0 0 0 -1.1622 -3.497 36.868 36.868 0 0 0 -1.505 -3.3639 36.868 36.868 0 0 0 -1.8338 -3.1968 36.868 36.868 0 0 0 -0.94907 -1.3268z" style="fill:url(#linearGradient4348)"/>
 <path id="path4332" d="m27.423 44.434a13.948 13.948 0 0 0 -0.65488 0.37562 13.948 13.948 0 0 0 -1.1341 0.81093 13.948 13.948 0 0 0 -1.0476 0.9205 13.948 13.948 0 0 0 -0.95034 1.0198 13.948 13.948 0 0 0 -0.84376 1.1102 13.948 13.948 0 0 0 -0.72864 1.1882 13.948 13.948 0 0 0 -0.6067 1.2556 13.948 13.948 0 0 0 -0.47794 1.3098 13.948 13.948 0 0 0 -0.34492 1.3507 13.948 13.948 0 0 0 -0.20849 1.3784 13.948 13.948 0 0 0 -0.06949 1.3925 13.948 13.948 0 0 0 0.03496 0.98701 13.948 13.948 0 0 0 0.16798 1.3839 13.948 13.948 0 0 0 0.30527 1.3601 13.948 13.948 0 0 0 0.43957 1.3234 13.948 13.948 0 0 0 0.56961 1.2722 13.948 13.948 0 0 0 0.69368 1.2096 13.948 13.948 0 0 0 0.81092 1.1341 13.948 13.948 0 0 0 0.92007 1.0476 13.948 13.948 0 0 0 1.0203 0.95035 13.948 13.948 0 0 0 1.1098 0.84375 13.948 13.948 0 0 0 0.4805 0.29461 22.703 22.703 0 0 0 1.8666 -0.41911 22.703 22.703 0 0 0 2.1535 -0.71542 22.703 22.703 0 0 0 2.0712 -0.9269 22.703 22.703 0 0 0 1.9685 -1.129 22.703 22.703 0 0 0 1.8457 -1.3204 22.703 22.703 0 0 0 1.705 -1.4974 22.703 22.703 0 0 0 1.5468 -1.6611 22.703 22.703 0 0 0 1.3733 -1.8065 22.703 22.703 0 0 0 1.1861 -1.9344 22.703 22.703 0 0 0 0.67919 -1.4053 36.868 36.868 0 0 0 -1.873 -2.1322 36.868 36.868 0 0 0 -2.6963 -2.5121 36.868 36.868 0 0 0 -2.9337 -2.2303 36.868 36.868 0 0 0 -3.1418 -1.9263 36.868 36.868 0 0 0 -3.3183 -1.6027 36.868 36.868 0 0 0 -1.8214 -0.66469 36.868 36.868 0 0 0 -0.09721 -0.03539z" style="fill:url(#linearGradient4380)"/>
 <path id="path4246" d="m14.985 42.224a36.868 36.868 0 0 0 -2.608 0.092091 36.868 36.868 0 0 0 -3.6581 0.44426 36.868 36.868 0 0 0 -3.5959 0.80709 36.868 36.868 0 0 0 -3.4974 1.1618 36.868 36.868 0 0 0 -1.5946 0.71372 22.703 22.703 0 0 0 -0.0307 0.61608 22.703 22.703 0 0 0 0.056705 1.6061 22.703 22.703 0 0 0 0.27372 2.2524 22.703 22.703 0 0 0 0.4967 2.2145 22.703 22.703 0 0 0 0.71585 2.1535 22.703 22.703 0 0 0 0.92689 2.0712 22.703 22.703 0 0 0 1.129 1.9685 22.703 22.703 0 0 0 1.32 1.8457 22.703 22.703 0 0 0 0.62333 0.70903 22.703 22.703 0 0 0 0 4.37e-4 22.703 22.703 0 0 0 4.365e-4 0 22.703 22.703 0 0 0 0.87403 0.99511 22.703 22.703 0 0 0 1.6607 1.5468 22.703 22.703 0 0 0 1.8065 1.3733 22.703 22.703 0 0 0 1.9344 1.1861 22.703 22.703 0 0 0 2.0435 0.98744 22.703 22.703 0 0 0 2.1318 0.7781 22.703 22.703 0 0 0 2.1987 0.56108 22.703 22.703 0 0 0 2.2439 0.33938 22.703 22.703 0 0 0 2.2665 0.11341 22.703 22.703 0 0 0 1.6061 -0.05628 22.703 22.703 0 0 0 2.2524 -0.27372 22.703 22.703 0 0 0 0.3479 -0.07802 13.948 13.948 0 0 1 -0.4805 -0.29461 13.948 13.948 0 0 1 -1.1098 -0.84375 13.948 13.948 0 0 1 -1.0203 -0.95035 13.948 13.948 0 0 1 -0.92007 -1.0476 13.948 13.948 0 0 1 -0.81093 -1.1341 13.948 13.948 0 0 1 -0.69368 -1.2096 13.948 13.948 0 0 1 -0.56961 -1.2722 13.948 13.948 0 0 1 -0.43957 -1.3234 13.948 13.948 0 0 1 -0.30527 -1.3601 13.948 13.948 0 0 1 -0.16798 -1.3839 13.948 13.948 0 0 1 -0.03496 -0.98701 13.948 13.948 0 0 1 0.06949 -1.3925 13.948 13.948 0 0 1 0.20849 -1.3784 13.948 13.948 0 0 1 0.34492 -1.3507 13.948 13.948 0 0 1 0.47794 -1.3098 13.948 13.948 0 0 1 0.6067 -1.2556 13.948 13.948 0 0 1 0.72864 -1.1882 13.948 13.948 0 0 1 0.84376 -1.1102 13.948 13.948 0 0 1 0.95034 -1.0198 13.948 13.948 0 0 1 1.0476 -0.9205 13.948 13.948 0 0 1 1.1341 -0.81093 13.948 13.948 0 0 1 0.65488 -0.37562 36.868 36.868 0 0 0 -1.5434 -0.56364 36.868 36.868 0 0 0 -3.5707 -0.91197 36.868 36.868 0 0 0 -3.6436 -0.55042 36.868 36.868 0 0 0 -3.6807 -0.18418z" style="fill:url(#linearGradient4372)"/>
 <path id="path4242" d="m22.884 23.365a22.703 22.703 0 0 0 -0.1812 -9e-3 22.703 22.703 0 0 0 -1.6061 0.05668 22.703 22.703 0 0 0 -2.2529 0.27372 22.703 22.703 0 0 0 -2.2141 0.4967 22.703 22.703 0 0 0 -2.1535 0.71585 22.703 22.703 0 0 0 -2.0712 0.9269 22.703 22.703 0 0 0 -1.9685 1.129 22.703 22.703 0 0 0 -1.8461 1.32 22.703 22.703 0 0 0 -1.7046 1.4978 22.703 22.703 0 0 0 -1.5468 1.6607 22.703 22.703 0 0 0 -1.3737 1.8065 22.703 22.703 0 0 0 -1.1861 1.9344 22.703 22.703 0 0 0 -0.98701 2.0435 22.703 22.703 0 0 0 -0.7781 2.1318 22.703 22.703 0 0 0 -0.56151 2.1987 22.703 22.703 0 0 0 -0.33895 2.2439 22.703 22.703 0 0 0 -0.082713 1.6504 36.868 36.868 0 0 1 1.5946 -0.71372 36.868 36.868 0 0 1 3.4974 -1.1618 36.868 36.868 0 0 1 3.5959 -0.80708 36.868 36.868 0 0 1 3.6581 -0.44427 36.868 36.868 0 0 1 2.608 -0.09209 36.868 36.868 0 0 1 3.6807 0.18419 36.868 36.868 0 0 1 3.6436 0.55043 36.868 36.868 0 0 1 3.5707 0.91196 36.868 36.868 0 0 1 1.6406 0.59902 22.703 22.703 0 0 0 0.45279 -1.7723 22.703 22.703 0 0 0 0.33938 -2.2439 22.703 22.703 0 0 0 0.11341 -2.2665 22.703 22.703 0 0 0 -0.05713 -1.6061 22.703 22.703 0 0 0 -0.2733 -2.2528 22.703 22.703 0 0 0 -0.49713 -2.2141 22.703 22.703 0 0 0 -0.71542 -2.1535 22.703 22.703 0 0 0 -0.9269 -2.0712 22.703 22.703 0 0 0 -1.1294 -1.9685 22.703 22.703 0 0 0 -1.32 -1.8461 22.703 22.703 0 0 0 -0.6229 -0.70903z" style="fill:url(#linearGradient4364)"/>
</svg>
