<?xml version="1.0" encoding="UTF-8" standalone="no"?>
<!-- Created with Inkscape (http://www.inkscape.org/) -->

<svg
   xmlns:dc="http://purl.org/dc/elements/1.1/"
   xmlns:cc="http://creativecommons.org/ns#"
   xmlns:rdf="http://www.w3.org/1999/02/22-rdf-syntax-ns#"
   xmlns:svg="http://www.w3.org/2000/svg"
   xmlns="http://www.w3.org/2000/svg"
   xmlns:sodipodi="http://sodipodi.sourceforge.net/DTD/sodipodi-0.dtd"
   xmlns:inkscape="http://www.inkscape.org/namespaces/inkscape"
   width="173.94611mm"
   height="16.965752mm"
   viewBox="0 0 173.94613 16.96575"
   version="1.1"
   id="svg8"
   sodipodi:docname="vitorLabel5.svg"
   inkscape:version="0.92.1 r15371">
  <sodipodi:namedview
     id="base"
     inkscape:object-nodes="false"
     pagecolor="#ffffff"
     bordercolor="#666666"
     borderopacity="1.0"
     inkscape:pageopacity="0.0"
     inkscape:pageshadow="2"
     inkscape:zoom="1"
     inkscape:cx="136.20724"
     inkscape:cy="141.42338"
     inkscape:document-units="mm"
     inkscape:current-layer="svg8"
     showgrid="false"
     fit-margin-top="0"
     fit-margin-left="0"
     fit-margin-right="0"
     fit-margin-bottom="0"
     inkscape:window-width="1920"
     inkscape:window-height="1017"
     inkscape:window-x="-8"
     inkscape:window-y="-8"
     inkscape:window-maximized="1" />
  <defs
     id="defs2" />
  <metadata
     id="metadata5">
    <rdf:RDF>
      <cc:Work
         rdf:about="">
        <dc:format>image/svg+xml</dc:format>
        <dc:type
           rdf:resource="http://purl.org/dc/dcmitype/StillImage" />
        <dc:title />
      </cc:Work>
    </rdf:RDF>
  </metadata>
  <path
     inkscape:connector-curvature="0"
     d=""
     style="fill:none;stroke:#000000;stroke-width:0.26458332"
     id="path5185" />
  <g
     id="g6989">
    <path
       inkscape:connector-curvature="0"
       id="path5175"
       d="M 0.35501527,0.53595576 C 2.3811693,5.8546067 4.4073213,11.173259 6.4334743,16.49191 M 12.511934,0.53595576 C 10.48578,5.8546067 8.4596273,11.173259 6.4334743,16.49191"
       style="fill:none;stroke:#000000;stroke-width:0.75980729" />
    <path
       inkscape:connector-curvature="0"
       id="path5177"
       d="m 16.310971,0.53595576 c 0,5.31865094 0,10.63730324 0,15.95595424"
       style="fill:none;stroke:#000000;stroke-width:0.75980729" />
    <path
       inkscape:connector-curvature="0"
       id="path5179"
       d="m 25.428657,0.53595576 c 0,5.31865094 0,10.63730324 0,15.95595424 M 20.110005,0.53595576 c 3.54577,0 7.091537,0 10.637304,0"
       style="fill:none;stroke:#000000;stroke-width:0.75980729" />
    <path
       sodipodi:nodetypes="ccccc"
       inkscape:connector-curvature="0"
       id="path5181"
       d="M 38.345381,0.53595576 C 33.395782,2.5509905 32.633221,9.3897454 35.015242,13.630665 c 1.596885,3.471718 6.916653,4.006872 9.124635,0.865788 C 46.986125,10.5925 46.715672,4.0649596 42.591627,1.1394641 41.333834,0.19002269 39.884966,0.31331664 38.345381,0.53595576 Z"
       style="fill:none;stroke:#000000;stroke-width:0.75980729" />
    <path
       inkscape:connector-curvature="0"
       id="path5183"
       d="m 51.262107,0.53595576 c 0,5.31865094 0,10.63730324 0,15.95595424 m 0,-15.95595424 c 3.272756,0.33427756 7.270181,-0.9934381 9.877495,1.51961644 1.880185,2.2760587 0.127321,5.8192642 -2.749166,5.9817681 -2.339813,0.2249119 -4.761783,0.03275 -7.128329,0.096696 m 5.31865,0 c 1.772885,2.7859607 3.545769,5.5719217 5.318652,8.3578827"
       style="fill:none;stroke:#000000;stroke-width:0.75980729" />
    <path
       inkscape:connector-curvature="0"
       id="path5187"
       d="M 79.37498,0.53595576 V 16.49191 m 0,-15.95595424 c 3.272757,0.33427756 7.270181,-0.9934381 9.877493,1.51961644 1.965027,2.5865967 -0.0066,5.8788179 -3.047495,6.1425347 M 79.37498,8.1340281 c 3.272758,0.3342758 7.270177,-0.9934365 9.877493,1.5196165 1.810229,2.4293734 0.519475,6.5384134 -2.749167,6.7415784 -2.33981,0.224912 -4.761781,0.03272 -7.128326,0.09668"
       style="fill:none;stroke:#000000;stroke-width:0.75980729"
       sodipodi:nodetypes="ccccccccc" />
    <path
       inkscape:connector-curvature="0"
       id="path5189"
       d="m 95.330931,0.53595576 c 0,5.31865094 0,10.63730324 0,15.95595424"
       style="fill:none;stroke:#000000;stroke-width:0.75980729" />
    <path
       inkscape:connector-curvature="0"
       id="path5191"
       d="m 112.04669,4.3349936 c -1.06574,-3.43108788 -5.38131,-4.99618244 -8.35788,-3.0392313 -4.181349,3.5099381 -4.16629,10.9246137 0,14.4363407 3.06312,1.943625 7.20872,0.425611 8.35788,-3.039231"
       style="fill:none;stroke:#000000;stroke-width:0.75980729" />
    <path
       inkscape:connector-curvature="0"
       id="path5193"
       d="m 117.36534,0.53595576 c 0,5.31865094 0,10.63730324 0,15.95595424 M 128.00265,0.53595576 c 0,5.31865094 0,10.63730324 0,15.95595424 M 117.36534,8.1340281 c 3.54577,0 7.09154,0 10.63731,0"
       style="fill:none;stroke:#000000;stroke-width:0.75980729" />
    <path
       inkscape:connector-curvature="0"
       id="path5195"
       d="M 137.88014,0.53595576 C 135.85399,5.8546067 133.82784,11.173259 131.80168,16.49191 M 137.88014,0.53595576 C 139.9063,5.8546067 141.93245,11.173259 143.9586,16.49191 m -9.87749,-5.318651 c 2.53269,0 5.06538,0 7.59808,0"
       style="fill:none;stroke:#000000;stroke-width:0.75980729" />
    <path
       inkscape:connector-curvature="0"
       id="path5197"
       d="m 147.75765,0.53595576 c 0,5.31865094 0,10.63730324 0,15.95595424 m 0,-15.95595424 c 3.27275,0.33427756 7.27018,-0.9934381 9.87748,1.51961644 1.88018,2.2760604 0.12736,5.8192642 -2.74916,5.9817681 -2.33982,0.2249119 -4.76178,0.03275 -7.12832,0.096696 m 5.31864,0 c 1.77288,2.7859607 3.54577,5.5719217 5.31865,8.3578827"
       style="fill:none;stroke:#000000;stroke-width:0.75980729" />
    <path
       inkscape:connector-curvature="0"
       id="path5199"
       d="M 167.51263,0.53595576 C 165.48648,5.8546067 163.46032,11.173259 161.43417,16.49191 m 6.07846,-15.95595424 c 2.02614,5.31865094 4.05231,10.63730324 6.07846,15.95595424 m -9.8775,-5.318651 c 2.5327,0 5.06539,0 7.59807,0"
       style="fill:none;stroke:#000000;stroke-width:0.75980729" />
  </g>
</svg>
