<svg id="svg9" width="130.17mm" height="12.7mm" version="1.1" viewBox="0 0 130.17281 12.70001" xmlns="http://www.w3.org/2000/svg">
 <g id="vitorLabel" fill="#fff">
  <path id="path4491" d="m9.966 0.15875q0.2293 0 0.38805 0.15875 0.15875 0.14111 0.15875 0.33514 0 0.12347-0.0529 0.26458l-4.7096 11.254q-0.0706 0.15875-0.21166 0.26458-0.14111 0.08819-0.29986 0.08819t-0.29986-0.08819q-0.12348-0.08819-0.19403-0.24694l-4.692-11.236q-0.0529-0.10583-0.0529-0.28222 0-0.2293 0.15875-0.37042 0.15875-0.14111 0.35277-0.14111 0.37042 0 0.52917 0.38806l4.251 10.16 4.1804-10.195q0.0882-0.15875 0.21167-0.24694 0.14111-0.10583 0.28222-0.10583z"/>
  <path id="path4493" d="m13.865 11.977q-0.0176 0.22931-0.17639 0.38806-0.15875 0.15875-0.38806 0.15875-0.24694 0-0.40569-0.14111-0.14111-0.15875-0.14111-0.4057v-11.254q0-0.24694 0.15875-0.38806 0.15875-0.15875 0.40569-0.15875 0.22931 0 0.38806 0.15875t0.15875 0.38806z"/>
  <path id="path4495" d="m25.031 0.17639q0.22931 0 0.37042 0.14111 0.15875 0.14111 0.15875 0.37042t-0.15875 0.37042q-0.14111 0.12347-0.37042 0.12347h-3.6512v10.813q0 0.22931-0.15875 0.38806-0.15875 0.14111-0.38805 0.14111-0.24695 0-0.4057-0.14111-0.14111-0.15875-0.14111-0.38806v-10.813h-3.6512q-0.2293 0-0.38805-0.14111-0.14112-0.14111-0.14112-0.37042 0-0.21167 0.14112-0.35278 0.15875-0.14111 0.38805-0.14111z"/>
  <path id="path4497" d="m38.471 6.35q0 1.8168-0.75847 3.2632t-2.099 2.2754q-1.3406 0.81139-3.0515 0.81139t-3.0515-0.81139q-1.3406-0.82903-2.099-2.2754-0.75848-1.4464-0.75848-3.2632 0-1.8344 0.75848-3.2808 0.75847-1.4464 2.099-2.2578 1.3406-0.81139 3.0515-0.81139t3.0515 0.81139 2.099 2.2578 0.75847 3.2808zm-1.1289 0q0-1.5346-0.61736-2.734-0.59972-1.2171-1.6933-1.8874-1.076-0.67028-2.4694-0.67028t-2.4871 0.67028q-1.076 0.67028-1.6933 1.8874-0.59972 1.1994-0.59972 2.734 0 1.5346 0.59972 2.7517 0.61737 1.1994 1.6933 1.8697 1.0936 0.67028 2.4871 0.67028t2.4694-0.67028q1.0936-0.67028 1.6933-1.8697 0.61736-1.2171 0.61736-2.7517z"/>
  <path id="path4499" d="m49.983 11.571q0.26458 0.17639 0.26458 0.44097 0 0.08819-0.0705 0.22931-0.0706 0.12347-0.19403 0.19403-0.12347 0.07056-0.26458 0.07056-0.17639 0-0.29986-0.07056-0.49389-0.28222-0.79375-0.91722t-0.29986-2.0285q0-1.2347-0.68792-1.7286-0.68792-0.51153-1.6404-0.51153h-3.9158v4.7449q0 0.22931-0.14111 0.38806-0.14111 0.14111-0.37042 0.14111-0.24694 0-0.42333-0.14111-0.17639-0.15875-0.17639-0.38806v-11.289q0-0.22931 0.14111-0.37042 0.15875-0.15875 0.38806-0.15875h4.7625q1.0054 0 1.7992 0.44097 0.79375 0.42333 1.2347 1.1818 0.45862 0.75847 0.45862 1.711 0 1.1289-0.59973 1.9932-0.58208 0.84667-1.5346 1.1642 0.77611 0.29986 1.27 1.0231 0.49389 0.70556 0.51153 1.7286 0.0176 1.0936 0.14111 1.5346 0.14111 0.44097 0.44097 0.61736zm-3.6689-5.2917q0.61736-0.05292 1.1465-0.4057 0.52917-0.35278 0.84667-0.9525 0.3175-0.59972 0.3175-1.3758 0-1.0054-0.68792-1.6581-0.67028-0.67028-1.7639-0.67028h-4.0922v5.0624z"/>
  <path id="path4501" d="m64.206 5.9619q1.0583 0.26458 1.7286 1.0583 0.67027 0.79375 0.67027 2.0638 0 1.7286-1.076 2.5929-1.0583 0.84667-2.6458 0.84667h-4.7449q-0.22931 0-0.38806-0.14111-0.14111-0.15875-0.14111-0.38806v-11.289q0-0.22931 0.14111-0.37042 0.15875-0.15875 0.38806-0.15875h4.6743q1.4817 0 2.3107 0.81139 0.84666 0.81139 0.84666 2.2225 0 0.93486-0.45861 1.6757-0.45861 0.74083-1.3053 1.076zm0.635-2.6635q0-0.97014-0.58209-1.5169-0.56444-0.56444-1.5875-0.56444h-3.9335v4.4097h3.9335q0.9525-0.01764 1.5522-0.61736 0.61737-0.59972 0.61737-1.711zm-2.0108 8.1844q1.1818 0 1.905-0.59972 0.74084-0.59972 0.74084-1.7992 0-1.2347-0.75848-1.8168-0.74083-0.58208-1.9226-0.58208h-4.0569v4.7978z"/>
  <path id="path4503" d="m70.193 11.977q-0.0176 0.22931-0.17639 0.38806-0.15875 0.15875-0.38806 0.15875-0.24694 0-0.40569-0.14111-0.14111-0.15875-0.14111-0.4057v-11.254q0-0.24694 0.15875-0.38806 0.15875-0.15875 0.40569-0.15875 0.22931 0 0.38806 0.15875t0.15875 0.38806z"/>
  <path id="path4505" d="m82.505 1.0936q0.26458 0.15875 0.26458 0.44097 0 0.15875-0.12347 0.35278-0.15875 0.19403-0.4057 0.19403-0.14111 0-0.28222-0.08819-1.4111-0.93486-3.0868-0.93486-1.4288 0-2.5929 0.67028-1.1465 0.67028-1.8168 1.8874-0.65264 1.1994-0.65264 2.734 0 1.5699 0.67028 2.7869 0.67028 1.1994 1.8168 1.8697 1.1642 0.65264 2.5753 0.65264 1.6757 0 3.0692-0.91722 0.14111-0.08819 0.29986-0.08819 0.24695 0 0.4057 0.21167 0.12347 0.14111 0.12347 0.33514 0 0.28222-0.24694 0.42333-0.68792 0.45861-1.6933 0.77611-1.0054 0.29986-1.9579 0.29986-1.6757 0-3.1044-0.79375-1.4111-0.81139-2.2578-2.2578-0.82902-1.4464-0.82902-3.2985 0-1.7815 0.82902-3.2279 0.82903-1.464 2.2401-2.2754 1.4111-0.82903 3.1221-0.82903 0.98777 0 1.9226 0.28222 0.9525 0.28222 1.711 0.79375z"/>
  <path id="path4507" d="m93.835 0.17639q0.24695 0 0.38806 0.15875 0.15875 0.14111 0.15875 0.38806v11.254q-0.0176 0.24694-0.17639 0.4057-0.15875 0.14111-0.38806 0.14111-0.2293 0-0.38805-0.15875t-0.15875-0.38806v-5.2564h-7.1614v5.2564q-0.0176 0.22931-0.17639 0.38806-0.15875 0.15875-0.38806 0.15875-0.24694 0-0.40569-0.14111-0.14111-0.15875-0.14111-0.4057v-11.254q0-0.24694 0.15875-0.38806 0.15875-0.15875 0.40569-0.15875 0.22931 0 0.38806 0.15875t0.15875 0.38806v4.9742h7.1614v-4.9742q0-0.22931 0.15875-0.38806 0.17639-0.15875 0.40569-0.15875z"/>
  <path id="path4509" d="m106.92 11.818q0.0353 0.14111 0.0353 0.21167 0 0.2293-0.15875 0.37042-0.15875 0.14111-0.37042 0.14111-0.17639 0-0.3175-0.08819-0.12347-0.10583-0.19403-0.26458l-1.3229-3.2279h-5.7326l-1.3053 3.2279q-0.14111 0.35278-0.47625 0.35278-0.24694 0-0.37042-0.12347-0.12347-0.12347-0.14111-0.33514v-0.05292q0-0.10583 0.0176-0.15875l4.6567-11.395q0.14111-0.35278 0.52917-0.35278 0.17638 0 0.29986 0.10583 0.14111 0.08819 0.21166 0.24694zm-7.6553-3.8982h4.9036l-2.4694-6.0325z"/>
  <path id="path4511" d="m118.13 11.571q0.26458 0.17639 0.26458 0.44097 0 0.08819-0.0706 0.22931-0.0706 0.12347-0.19403 0.19403-0.12347 0.07056-0.26458 0.07056-0.17639 0-0.29986-0.07056-0.49389-0.28222-0.79375-0.91722t-0.29986-2.0285q0-1.2347-0.68792-1.7286-0.68792-0.51153-1.6404-0.51153h-3.9158v4.7449q0 0.22931-0.14111 0.38806-0.14111 0.14111-0.37042 0.14111-0.24694 0-0.42333-0.14111-0.17639-0.15875-0.17639-0.38806v-11.289q0-0.22931 0.14111-0.37042 0.15875-0.15875 0.38805-0.15875h4.7625q1.0054 0 1.7992 0.44097 0.79375 0.42333 1.2347 1.1818 0.45862 0.75847 0.45862 1.711 0 1.1289-0.59973 1.9932-0.58208 0.84667-1.5346 1.1642 0.77611 0.29986 1.27 1.0231 0.49389 0.70556 0.51153 1.7286 0.0176 1.0936 0.14111 1.5346 0.14111 0.44097 0.44097 0.61736zm-3.6689-5.2917q0.61736-0.05292 1.1465-0.4057 0.52917-0.35278 0.84667-0.9525 0.3175-0.59972 0.3175-1.3758 0-1.0054-0.68792-1.6581-0.67028-0.67028-1.7639-0.67028h-4.0922v5.0624z"/>
  <path id="path4513" d="m130.14 11.818q0.0353 0.14111 0.0353 0.21167 0 0.2293-0.15875 0.37042-0.15875 0.14111-0.37042 0.14111-0.17639 0-0.3175-0.08819-0.12347-0.10583-0.19403-0.26458l-1.3229-3.2279h-5.7326l-1.3053 3.2279q-0.14111 0.35278-0.47625 0.35278-0.24695 0-0.37042-0.12347-0.12347-0.12347-0.14111-0.33514v-0.05292q0-0.10583 0.0176-0.15875l4.6567-11.395q0.14111-0.35278 0.52916-0.35278 0.17639 0 0.29986 0.10583 0.14112 0.08819 0.21167 0.24694zm-7.6553-3.8982h4.9036l-2.4694-6.0325z"/>
 </g>
</svg>
