<svg id="svg1" width="141.34mm" height="13.785mm" version="1.1" viewBox="0 0 141.33709 13.785243" xmlns="http://www.w3.org/2000/svg">
 <g id="g5677" fill="#fff" stroke="#fff" stroke-width=".61737">
  <path id="path5175" d="m0.28846 0.43548c1.6463 4.3216 3.2926 8.6432 4.939 12.965m4.939-12.965c-1.6463 4.3216-3.2926 8.6432-4.939 12.965"/>
  <path id="path5177" d="m13.253 0.43548v12.965"/>
  <path id="path5179" d="m20.662 0.43548v12.965m-4.3216-12.965h8.6432"/>
  <path id="path5181" d="m31.157 0.43548c-4.0217 1.6373-4.6413 7.194-2.7058 10.64 1.2975 2.8209 5.62 3.2557 7.4141 0.70348 2.3127-3.1721 2.0929-8.4759-1.258-10.853-1.022-0.77145-2.1993-0.67127-3.4502-0.49037z"/>
  <path id="path5183" d="m41.652 0.43548v12.965m0-12.965c2.6592 0.27161 5.9073-0.8072 8.0258 1.2347 1.5277 1.8494 0.10345 4.7283-2.2338 4.8604-1.9012 0.18275-3.8691 0.026611-5.792 0.078569m4.3216 0c1.4405 2.2637 2.8811 4.5274 4.3216 6.7911"/>
  <path id="path5187" d="m64.495 0.43548v12.965m0-12.965c2.6592 0.27161 5.9073-0.8072 8.0258 1.2347 1.5966 2.1017 0.11866 4.7189-2.3522 4.9331m-5.6736 0.00581c7.1916 0 6.6514-0.31938 8.0258 1.2347 1.4709 1.9739 0.42209 5.3127-2.2338 5.4778-1.9012 0.18275-3.8691 0.02659-5.792 0.07856"/>
  <path id="path5189" d="m77.46 0.43548v12.965"/>
  <path id="path5191" d="m91.042 3.5223c-0.86595-2.7879-4.3725-4.0596-6.7911-2.4695-3.3975 2.8519-3.3853 8.8766 0 11.73 2.4889 1.5793 5.8573 0.34582 6.7911-2.4695"/>
  <path id="path5193" d="m95.363 0.43548v12.965m8.6432-12.965v12.965m-8.6432-6.7911h8.6432"/>
  <path id="path5195" d="m112.03 0.43548c-1.6463 4.3216-3.2926 8.6432-4.939 12.965m4.939-12.965c1.6463 4.3216 3.2926 8.6432 4.939 12.965m-8.0258-4.3216h6.1737"/>
  <path id="path5197" d="m120.06 0.43548v12.965m0-12.965c2.6592 0.27161 5.9073-0.8072 8.0258 1.2347 1.5277 1.8494 0.10348 4.7283-2.2338 4.8604-1.9012 0.18275-3.8691 0.026611-5.792 0.078569m4.3216 0c1.4405 2.2637 2.8811 4.5274 4.3216 6.7911"/>
  <path id="path5199" d="m136.11 0.43548c-1.6463 4.3216-3.2926 8.6432-4.939 12.965m4.939-12.965c1.6463 4.3216 3.2926 8.6432 4.939 12.965m-8.0258-4.3216h6.1737"/>
 </g>
</svg>
