<svg id="svg8" width="103.09mm" height="10.055mm" version="1.1" viewBox="0 0 103.09458 10.05528" xmlns="http://www.w3.org/2000/svg">
 <g id="g5306" fill="none" stroke="#fff" stroke-width=".45032">
  <path id="path5175" d="m0.21041 0.31765c1.2009 3.1523 2.4017 6.3045 3.6026 9.4568m3.6026-9.4568c-1.2009 3.1523-2.4017 6.3045-3.6026 9.4568"/>
  <path id="path5177" d="m9.6672 0.31765v9.4568"/>
  <path id="path5179" d="m15.071 0.31765v9.4568m-3.1523-9.4568h6.3045"/>
  <path id="path5181" d="m22.727 0.31765c-2.9335 1.1943-3.3855 5.2475-1.9737 7.761 0.94644 2.0576 4.0994 2.3748 5.408 0.51314 1.6869-2.3138 1.5266-6.1825-0.91762-7.9164-0.74547-0.56272-1.6042-0.48964-2.5167-0.35769z"/>
  <path id="path5183" d="m30.382 0.31765v9.4568m0-9.4568c1.9397 0.19812 4.3089-0.58879 5.8542 0.90065 1.1144 1.349 0.07546 3.449-1.6294 3.5453-1.3868 0.1333-2.8222 0.01941-4.2248 0.05731m3.1523 0c1.0508 1.6512 2.1015 3.3024 3.1523 4.9536"/>
  <path id="path5187" d="m47.044 0.31765v9.4568m0-9.4568c1.9397 0.19812 4.3089-0.58879 5.8542 0.90065 1.1646 1.533 1e-3 3.4463-1.8013 3.6026m-4.0529 0c1.9397 0.19812 4.3089-0.58879 5.8542 0.90065 1.0729 1.4398 0.30788 3.8752-1.6294 3.9956-1.3868 0.1333-2.8222 0.0194-4.2248 0.0573"/>
  <path id="path5189" d="m56.501 0.31765v9.4568"/>
  <path id="path5191" d="m66.408 2.5693c-0.63164-2.0335-3.1894-2.9611-4.9536-1.8013-2.4782 2.0803-2.4693 6.4748 0 8.5561 1.8155 1.1519 4.2725 0.25225 4.9536-1.8013"/>
  <path id="path5193" d="m69.56 0.31765v9.4568m6.3045-9.4568v9.4568m-6.3045-4.9536h6.3045"/>
  <path id="path5195" d="m81.719 0.31765c-1.2009 3.1523-2.4017 6.3045-3.6026 9.4568m3.6026-9.4568c1.2009 3.1523 2.4017 6.3045 3.6026 9.4568m-5.8542-3.1523h4.5032"/>
  <path id="path5197" d="m87.573 0.31765v9.4568m0-9.4568c1.9397 0.19812 4.3089-0.58879 5.8542 0.90065 1.1143 1.349 0.07546 3.449-1.6294 3.5453-1.3868 0.1333-2.8222 0.01941-4.2248 0.05731m3.1523 0c1.0508 1.6512 2.1015 3.3024 3.1523 4.9536"/>
  <path id="path5199" d="m99.282 0.31765c-1.2009 3.1523-2.4017 6.3045-3.6026 9.4568m3.6026-9.4568c1.2009 3.1523 2.4017 6.3045 3.6026 9.4568m-5.8542-3.1523h4.5032"/>
 </g>
</svg>
