<svg id="svg8" width="130.34mm" height="15.047mm" version="1.1" viewBox="0 0 130.3375 15.047129" xmlns="http://www.w3.org/2000/svg">
 <g id="g6659" fill="none" stroke="#000" stroke-width=".65507">
  <path id="path5707" d="m0.30608 0.90278c1.7469 4.5855 3.4937 9.171 5.2406 13.756m5.2406-13.756c-1.7469 4.5855-3.4937 9.171-5.2406 13.756"/>
  <path id="path5709" d="m13.407 0.90278c1.5523 2.0081 1.5081-2.0002 0 0zm0.65507 4.5855v9.171"/>
  <path id="path5711" d="m19.958 0.90278c0.11155 3.8689-0.22262 7.8102 0.16598 11.634 0.12771 1.6449 1.6 2.347 3.1094 2.1223m-5.2406-9.171h4.5855"/>
  <path id="path5713" d="m29.784 5.4883c-2.8528 0.89321-4.1029 4.4051-2.6944 6.9834 1.2496 2.4401 4.9851 3.1014 6.7121 0.79023 2.2798-2.2879 1.2005-6.7221-1.916-7.7054-0.66364-0.16148-1.4098-0.02113-2.1017-0.06823z"/>
  <path id="path5715" d="m39.61 5.4883v9.171m0-5.2406c0.42298-2.5296 2.6078-4.4208 5.2406-3.9304"/>
  <path id="path5719" d="m58.607 0.90278v13.756m0-13.756c2.7884 0.28041 6.1424-0.81728 8.4176 1.2118 1.6766 1.8043 0.43649 5.0774-2.0175 5.2645l-0.44741 0.04165-0.05702 0.03279m-5.8956 0c6.438 0 7.2587-0.43694 8.4176 1.2118 1.6264 1.9422 0.71323 5.5933-2.0506 5.8369-2.0632 0.35785-4.26 0.0588-6.367 0.15712"/>
  <path id="path5721" d="m71.709 0.90278c1.5523 2.0081 1.5081-2.0002 0 0zm0.65507 4.5855v9.171"/>
  <path id="path5723" d="m84.81 7.4535c-1.3925-2.1398-4.7103-2.8279-6.4524-0.75342-2.507 2.2163-1.4811 6.8855 1.7304 7.891 1.9113 0.47624 3.5396-0.39014 4.722-1.897"/>
  <path id="path5725" d="m89.396 0.90278v13.756m0-6.5507c1.3226-1.4953 2.9232-3.1092 5.1125-2.6203 2.4828 0.48032 2.0775 3.56 2.0933 5.5071v3.6638"/>
  <path id="path5727" d="m109.05 5.4883v9.171m0-7.2058c-1.3925-2.1398-4.7103-2.8279-6.4524-0.75342-2.507 2.2163-1.4811 6.8855 1.7304 7.891 1.9113 0.47624 3.5396-0.39014 4.722-1.897"/>
  <path id="path5729" d="m114.29 5.4883v9.171m0-5.2406c0.42298-2.5296 2.6078-4.4208 5.2406-3.9304"/>
  <path id="path5731" d="m130.01 5.4883v9.171m0-7.2058c-1.3925-2.1398-4.7103-2.8279-6.4524-0.75342-2.507 2.2163-1.4811 6.8855 1.7304 7.891 1.9113 0.47624 3.5396-0.39014 4.722-1.897"/>
 </g>
</svg>
