<svg id="svg8" width="123.67mm" height="24.737mm" version="1.1" viewBox="0 0 123.67434 24.737496" xmlns="http://www.w3.org/2000/svg">
 <g id="g6893" fill="none" stroke="#fff">
  <path id="path5175" d="m0.25241 0.38106c1.4406 3.7815 2.8812 7.563 4.3217 11.345m4.3217-11.345c-1.4406 3.7815-2.8812 7.563-4.3217 11.345" stroke-width=".54022"/>
  <path id="path5177" d="m11.597 0.38106v11.345" stroke-width=".54022"/>
  <path id="path5179" d="m18.08 0.38106v11.345m-3.7815-11.345h7.563" stroke-width=".54022"/>
  <path id="path5181" d="m27.263 0.38106c-3.5191 1.4327-4.0613 6.295-2.3677 9.3102 1.1354 2.4684 4.9177 2.8489 6.4875 0.61557 2.0237-2.7757 1.8314-7.4167-1.1008-9.4967-0.89428-0.67505-1.9244-0.58738-3.019-0.42909z" stroke-width=".54022"/>
  <path id="path5183" d="m36.447 0.38106v11.345m0-11.345c2.3269 0.23767 5.169-0.70633 7.0228 1.0804 1.3368 1.6183 0.09052 4.1375-1.9546 4.253-1.6636 0.15991-3.3856 0.023285-5.0682 0.06875m3.7815 0c1.2605 1.9808 2.521 3.9616 3.7815 5.9424" stroke-width=".54022"/>
  <path id="path5187" d="m56.435 0.38106v11.345m0-11.345c2.3269 0.23767 5.169-0.70633 7.0228 1.0804 1.3971 1.8391 0.0012 4.1342-2.1609 4.3217m-4.862 0c2.3269 0.23767 5.169-0.70633 7.0228 1.0804 1.2871 1.7273 0.36934 4.6488-1.9546 4.7932-1.6636 0.15991-3.3856 0.02327-5.0682 0.06874" stroke-width=".54022"/>
  <path id="path5189" d="m67.78 0.38106v11.345" stroke-width=".54022"/>
  <path id="path5191" d="m79.664 3.0821c-0.75773-2.4395-3.8261-3.5522-5.9424-2.1609-2.9729 2.4955-2.9622 7.7673 0 10.264 2.1779 1.3819 5.1253 0.30261 5.9424-2.1609" stroke-width=".54022"/>
  <path id="path5193" d="m83.446 0.38106v11.345m7.563-11.345v11.345m-7.563-5.9424h7.563" stroke-width=".54022"/>
  <path id="path5195" d="m98.032 0.38106c-1.4406 3.7815-2.8812 7.563-4.3217 11.345m4.3217-11.345c1.4406 3.7815 2.8812 7.563 4.3217 11.345m-7.0228-3.7815h5.4022" stroke-width=".54022"/>
  <path id="path5197" d="m105.05 0.38106v11.345m0-11.345c2.3269 0.23767 5.169-0.70633 7.0228 1.0804 1.3368 1.6183 0.0905 4.1375-1.9546 4.253-1.6636 0.15991-3.3856 0.023285-5.0682 0.06875m3.7815 0c1.2605 1.9808 2.521 3.9616 3.7815 5.9424" stroke-width=".54022"/>
  <path id="path5199" d="m119.1 0.38106c-1.4406 3.7815-2.8812 7.563-4.3217 11.345m4.3217-11.345c1.4406 3.7815 2.8812 7.563 4.3217 11.345m-7.0228-3.7815h5.4022" stroke-width=".54022"/>
  <path id="path6478" d="m11.222 16.873v5.7777m0-3.0264c-1.0245-1.722-3.6723-0.49297-3.3016 1.3757 0.21927 1.6847 2.3239 2.3046 3.3016 0.82539" stroke-width=".27513"/>
  <path id="path6480" d="m13.148 20.45h3.3016c0.09129-0.80213-0.5383-1.3726-1.1114-1.6508h-0.81447c-0.79729 0.29033-1.1499 0.92134-1.3757 1.6617 0.0024 0.18304-0.0047 0.3676 0.0035 0.5497 0.39226 1.2155 1.0528 1.6404 2.1976 1.6404 0.18529-0.09526 0.37611-0.18285 0.55798-0.28285l0.54254-0.54254" stroke-width=".27513"/>
  <path id="path6482" d="m21.127 19.624c-0.29895-1.3943-3.7486-1.0202-2.7513 0.55026 0.86058 0.58767 3.1058 0.2635 2.6515 1.8504-0.4764 0.92013-2.6214 0.90037-2.9266-0.19964" stroke-width=".27513"/>
  <path id="path6484" d="m22.778 16.873c0.71052 0.93484 0.57493-0.91712 0 0zm0.27513 1.9259v3.8518" stroke-width=".27513"/>
  <path id="path6486" d="m28.28 18.799c-0.19758 1.7732 0.44796 3.7894-0.43296 5.3853-0.53493 0.52661-1.4415 0.53278-2.0432 0.1173m2.4762-4.6772c-1.0245-1.722-3.6723-0.49297-3.3016 1.3757 0.21927 1.6847 2.3239 2.3046 3.3016 0.82539" stroke-width=".27513"/>
  <path id="path6488" d="m30.481 18.799v3.8518m0-2.7513c0.60918-1.1746 2.8589-1.7428 3.0264 0v2.7513" stroke-width=".27513"/>
  <path id="path6490" d="m35.434 20.45h3.3016v-0.55026c-0.21391-0.60601-0.55364-0.82708-1.1005-1.1005h-0.82539c-0.81804 0.30354-1.1153 0.86966-1.3757 1.6508v0.55026c0.28677 1.2154 1.0257 1.6508 2.201 1.6508l0.55026-0.27513 0.55026-0.55026" stroke-width=".27513"/>
  <path id="path6492" d="m40.661 18.799v3.8518m0-2.201c0.16485-1.055 1.1091-1.8648 2.201-1.6508" stroke-width=".27513"/>
  <path id="path6496" d="m47.053 20.174h4.9524" stroke-width=".27513"/>
  <path id="path6500" d="m60.048 16.873v5.7777m0-3.0264c-1.0245-1.722-3.6723-0.49297-3.3016 1.3757 0.21927 1.6847 2.3239 2.3046 3.3016 0.82539" stroke-width=".27513"/>
  <path id="path6502" d="m61.974 20.45h3.3016v-0.55026c-0.21391-0.60601-0.55364-0.82708-1.1005-1.1005h-0.82539c-0.81804 0.30354-1.1153 0.86966-1.3757 1.6508v0.55026c0.28677 1.2154 1.0257 1.6508 2.201 1.6508l0.55026-0.27513 0.55026-0.55026" stroke-width=".27513"/>
  <path id="path6504" d="m69.953 19.624c-0.29895-1.3943-3.7486-1.0202-2.7513 0.55026 0.86058 0.58767 3.1058 0.2635 2.6515 1.8504-0.4764 0.92013-2.6214 0.90037-2.9266-0.19964" stroke-width=".27513"/>
  <path id="path6506" d="m71.604 20.45h3.3016v-0.55026c-0.21391-0.60601-0.55364-0.82708-1.1005-1.1005h-0.82539c-0.81804 0.30354-1.1153 0.86966-1.3757 1.6508v0.55026c0.42424 1.3986 1.4649 2.0188 2.7513 1.3757l0.55026-0.55026" stroke-width=".27513"/>
  <path id="path6508" d="m76.831 18.799v3.8518m0-2.7513c0.60918-1.1746 2.8589-1.7428 3.0264 0v2.7513" stroke-width=".27513"/>
  <path id="path6510" d="m81.508 18.799c0.55026 1.2839 1.1005 2.5679 1.6508 3.8518m1.6508-3.8518c-0.55026 1.2839-1.1005 2.5679-1.6508 3.8518" stroke-width=".27513"/>
  <path id="path6512" d="m87.561 18.799c-2.1422 0.54744-1.5788 4.1983 0.6696 3.8518 2.3783-0.43053 1.7995-4.2969-0.6696-3.8518z" stroke-width=".27513"/>
  <path id="path6514" d="m91.688 16.873v5.7777" stroke-width=".27513"/>
  <path id="path6516" d="m93.339 18.799c0.55026 1.2839 1.1005 2.5679 1.6508 3.8518m1.6508-3.8518c-0.55026 1.2839-1.1005 2.5679-1.6508 3.8518" stroke-width=".27513"/>
  <path id="path6518" d="m98.016 20.45h3.3016v-0.55026c-0.2139-0.60601-0.55363-0.82708-1.1005-1.1005h-0.8254c-0.81804 0.30354-1.1153 0.86966-1.3757 1.6508v0.55026c0.28677 1.2154 1.0257 1.6508 2.201 1.6508l0.55026-0.27513 0.55026-0.55026" stroke-width=".27513"/>
  <path id="path6520" d="m106.27 16.873v5.7777m0-3.0264c-1.0245-1.722-3.6723-0.49297-3.3016 1.3757 0.21926 1.6847 2.3239 2.3046 3.3016 0.82539" stroke-width=".27513"/>
  <path id="path6522" d="m109.57 18.799c-2.1422 0.54744-1.5788 4.1983 0.6696 3.8518 2.3783-0.43053 1.7995-4.2969-0.6696-3.8518z" stroke-width=".27513"/>
  <path id="path6524" d="m113.7 18.799v3.8518m0-2.201c0.16484-1.055 1.1091-1.8648 2.201-1.6508" stroke-width=".27513"/>
 </g>
</svg>
